<?xml version="1.0" encoding="UTF-8"?>
<svg width="27px" height="12px" viewBox="0 0 27 12" version="1.1" xmlns="http://www.w3.org/2000/svg" xmlns:xlink="http://www.w3.org/1999/xlink">
    <title>battery</title>
    <g id="battery" stroke="none" stroke-width="1" fill="none" fill-rule="evenodd">
        <g id="Battery">
            <path d="M4.4867991,0.5 L20.5132009,0.5 C21.9317601,0.5 22.4531911,0.630028052 22.9736806,0.908388831 C23.4556279,1.16613707 23.8338629,1.54437214 24.0916112,2.02631945 C24.3699719,2.54680885 24.5,3.06823992 24.5,4.4867991 L24.5,8.5132009 C24.5,9.93176008 24.3699719,10.4531911 24.0916112,10.9736806 C23.8338629,11.4556279 23.4556279,11.8338629 22.9736806,12.0916112 C22.4531911,12.3699719 21.9317601,12.5 20.5132009,12.5 L4.4867991,12.5 C3.06823992,12.5 2.54680885,12.3699719 2.02631945,12.0916112 C1.54437214,11.8338629 1.16613707,11.4556279 0.908388831,10.9736806 C0.630028052,10.4531911 0.5,9.93176008 0.5,8.5132009 L0.5,4.4867991 C0.5,3.06823992 0.630028052,2.54680885 0.908388831,2.02631945 C1.16613707,1.54437214 1.54437214,1.16613707 2.02631945,0.908388831 C2.54680885,0.630028052 3.06823992,0.5 4.4867991,0.5 Z" id="Border" stroke="#000000" opacity="0.35"></path>
            <path d="M26,4.66666667 L26,8.66666667 C26.8047311,8.32789015 27.328038,7.53979995 27.328038,6.66666667 C27.328038,5.79353339 26.8047311,5.00544318 26,4.66666667" id="Cap" fill="#000000" fill-rule="nonzero" opacity="0.4"></path>
            <path d="M3.70925685,2 L21.2907431,2 C21.885089,2 22.1006132,2.06188374 22.3178971,2.17808847 C22.5351811,2.29429321 22.7057068,2.46481893 22.8219115,2.68210288 C22.9381163,2.89938684 23,3.11491101 23,3.70925685 L23,9.29074315 C23,9.88508899 22.9381163,10.1006132 22.8219115,10.3178971 C22.7057068,10.5351811 22.5351811,10.7057068 22.3178971,10.8219115 C22.1006132,10.9381163 21.885089,11 21.2907431,11 L3.70925685,11 C3.11491101,11 2.89938684,10.9381163 2.68210288,10.8219115 C2.46481893,10.7057068 2.29429321,10.5351811 2.17808847,10.3178971 C2.06188374,10.1006132 2,9.88508899 2,9.29074315 L2,3.70925685 C2,3.11491101 2.06188374,2.89938684 2.17808847,2.68210288 C2.29429321,2.46481893 2.46481893,2.29429321 2.68210288,2.17808847 C2.89938684,2.06188374 3.11491101,2 3.70925685,2 Z" id="Capacity" fill="#000000" fill-rule="nonzero"></path>
        </g>
    </g>
</svg>