<?xml version="1.0" encoding="UTF-8"?>
<svg width="48px" height="48px" viewBox="0 0 48 48" version="1.1" xmlns="http://www.w3.org/2000/svg" xmlns:xlink="http://www.w3.org/1999/xlink">
    <title>bold</title>
    <g id="bold" stroke="none" stroke-width="1" fill="none" fill-rule="evenodd">
        <path d="M21.6767578,23.7304688 L21.6767578,29.7734375 L24.3564453,29.7734375 C25.6416016,29.7734375 26.5416667,29.5546875 27.0566406,29.1171875 C27.5716146,28.6796875 27.8291016,27.9186198 27.8291016,26.8339844 C27.8291016,25.7311198 27.5602214,24.938151 27.0224609,24.4550781 C26.4847005,23.9720052 25.5960286,23.7304688 24.3564453,23.7304688 L21.6767578,23.7304688 Z M21.6767578,15.7734375 L21.6767578,20.5175781 L24.3564453,20.5175781 C25.3772786,20.5175781 26.1041667,20.3352865 26.5371094,19.9707031 C26.9700521,19.6061198 27.1865234,19.0045573 27.1865234,18.1660156 C27.1865234,17.327474 26.9654948,16.7190755 26.5234375,16.3408203 C26.0813802,15.9625651 25.3590495,15.7734375 24.3564453,15.7734375 L21.6767578,15.7734375 Z M17.7802734,12.5605469 L24.3564453,12.5605469 C26.6259766,12.5605469 28.3326823,12.9912109 29.4765625,13.8525391 C30.6204427,14.7138672 31.1923828,16.0013021 31.1923828,17.7148438 C31.1923828,19.0273438 30.8551432,20.0527344 30.1806641,20.7910156 C29.5061849,21.5292969 28.5172526,21.9576823 27.2138672,22.0761719 C28.7724609,22.2311198 29.9459635,22.7552083 30.734375,23.6484375 C31.5227865,24.5416667 31.9169922,25.7903646 31.9169922,27.3945312 C31.9169922,29.3632812 31.3245443,30.7897135 30.1396484,31.6738281 C28.9547526,32.5579427 27.0270182,33 24.3564453,33 L17.7802734,33 L17.7802734,12.5605469 Z" id="形状" fill="#000000" fill-rule="nonzero"></path>
    </g>
</svg>