<?xml version="1.0" encoding="UTF-8"?>
<svg width="19px" height="12px" viewBox="0 0 19 12" version="1.1" xmlns="http://www.w3.org/2000/svg" xmlns:xlink="http://www.w3.org/1999/xlink">
    <title>celluar</title>
    <g id="celluar" stroke="none" stroke-width="1" fill="none" fill-rule="evenodd">
        <path d="M1.06666667,7.4 L2.13333333,7.4 C2.72243707,7.4 3.2,7.91487254 3.2,8.55 L3.2,10.85 C3.2,11.4851275 2.72243707,12 2.13333333,12 L1.06666667,12 C0.477562934,12 2.30926389e-14,11.4851275 2.30926389e-14,10.85 L2.30926389e-14,8.55 C2.30926389e-14,7.91487254 0.477562934,7.4 1.06666667,7.4 L1.06666667,7.4 Z M6.36666667,5 L7.43333333,5 C8.02243707,5 8.5,5.52233446 8.5,6.16666667 L8.5,10.8333333 C8.5,11.4776655 8.02243707,12 7.43333333,12 L6.36666667,12 C5.77756293,12 5.3,11.4776655 5.3,10.8333333 L5.3,6.16666667 C5.3,5.52233446 5.77756293,5 6.36666667,5 Z M11.7666667,2.4 L12.8333333,2.4 C13.4224371,2.4 13.9,2.91576797 13.9,3.552 L13.9,10.848 C13.9,11.484232 13.4224371,12 12.8333333,12 L11.7666667,12 C11.1775629,12 10.7,11.484232 10.7,10.848 L10.7,3.552 C10.7,2.91576797 11.1775629,2.4 11.7666667,2.4 Z M18.1333333,0 C18.7224371,0 19.2,0.503679656 19.2,1.125 L19.2,10.875 C19.2,11.4963203 18.7224371,12 18.1333333,12 L17.0666667,12 C16.4775629,12 16,11.4963203 16,10.875 L16,1.125 C16,0.503679656 16.4775629,0 17.0666667,0 L18.1333333,0 Z" id="Cellular-Connection" fill="#000000" fill-rule="nonzero"></path>
    </g>
</svg>