<?xml version="1.0" encoding="UTF-8"?>
<svg width="48px" height="48px" viewBox="0 0 48 48" version="1.1" xmlns="http://www.w3.org/2000/svg" xmlns:xlink="http://www.w3.org/1999/xlink">
    <title>func</title>
    <g id="func" stroke="none" stroke-width="1" fill="none" fill-rule="evenodd">
        <path d="M22.9735557,5.75794406 C23.5587924,5.44821475 24.2593895,5.44821475 24.8446261,5.75794406 L40.6844808,14.1409931 C41.0119111,14.3142816 41.2780273,14.5709781 41.462286,14.876967 C41.6465446,15.182956 41.7489456,15.5382375 41.7489456,15.9086961 L41.7489456,32.0913039 C41.7489456,32.4617625 41.6465446,32.817044 41.462286,33.123033 C41.2780273,33.4290219 41.0119111,33.6857184 40.6844808,33.8590069 L24.8446261,42.2420559 C24.2593895,42.5517852 23.5587924,42.5517852 22.9735557,42.2420559 L7.13370104,33.8590069 C6.80627068,33.6857184 6.54015447,33.4290219 6.35589585,33.123033 C6.17163723,32.817044 6.0692362,32.4617625 6.0692362,32.0913039 L6.0692362,15.9086961 C6.0692362,15.5382375 6.17163723,15.182956 6.35589585,14.876967 C6.54015447,14.5709781 6.80627068,14.3142816 7.13370104,14.1409931 Z" id="多边形" stroke="#000000" stroke-width="4"></path>
        <path d="M33.1981659,19.7263397 L25.1489707,23.9862776 C24.5541819,24.3010623 23.8421498,24.3010623 23.2473611,23.9862776 L15.1981659,19.7263397" id="路径" stroke="#000000" stroke-width="4" stroke-linecap="round" stroke-linejoin="bevel"></path>
        <line x1="24" y1="33" x2="24" y2="25" id="路径-4" stroke="#000000" stroke-width="4" stroke-linecap="round" stroke-linejoin="round"></line>
    </g>
</svg>