<?xml version="1.0" encoding="UTF-8"?>
<svg width="48px" height="48px" viewBox="0 0 48 48" version="1.1" xmlns="http://www.w3.org/2000/svg" xmlns:xlink="http://www.w3.org/1999/xlink">
    <title>global</title>
    <g id="global" stroke="none" stroke-width="1" fill="none" fill-rule="evenodd">
        <path d="M35.4940012,22.1799404 C35.7440011,22.1799404 35.9840011,22.2779391 36.1620011,22.4479369 C36.3379877,22.6159714 36.4376894,22.8486057 36.4380011,23.0919285 L36.4380011,25.8178929 L43.0560001,25.8178929 C43.576,25.8178929 44,26.2258876 44,26.727881 L44,37.6357387 C43.9901494,38.1474986 43.5677837,38.5546467 43.0560001,38.5457268 L36.4380011,38.5457268 L36.4380011,43.0916675 C36.4332733,43.3372698 36.3311489,43.5709294 36.1541043,43.74122 C35.9770597,43.9115107 35.7396049,44.0044761 35.4940012,43.9998342 L33.6000015,43.9998342 C33.3513631,44.0004538 33.1120319,43.9051525 32.9320016,43.7336591 C32.7565155,43.566105 32.6568576,43.3342951 32.6560016,43.0916675 L32.6560016,38.5457268 L26.0400026,38.5457268 C25.7913642,38.546525 25.552033,38.4512237 25.3720026,38.2797303 C25.1952791,38.1120371 25.0948359,37.8793587 25.0940027,37.6357387 L25.0940027,26.727881 C25.0940027,26.4878842 25.1940027,26.2538872 25.3720026,26.0838895 C25.552033,25.912396 25.7913642,25.8170947 26.0400026,25.8178929 L32.6560016,25.8178929 L32.6560016,23.0919285 C32.6560016,22.8499316 32.7560016,22.6179347 32.9320016,22.4479369 C33.1120319,22.2764435 33.3513631,22.1811422 33.6000015,22.1819404 L35.4920012,22.1819404 L35.4940012,22.1799404 Z M9.02800498,29.4558454 C10.0720048,29.4558454 10.9180047,30.2698348 10.9180047,31.2758217 L10.9180047,33.091798 C10.9180047,34.9957732 12.4420045,36.5777525 14.4160042,36.7197506 L14.7000042,36.7297505 L18.4800036,36.7297505 C19.5080035,36.7517502 20.3280034,37.5597397 20.3280034,38.5477267 C20.3280034,39.5357138 19.5080035,40.3437033 18.4800036,40.365703 L14.7000042,40.365703 C10.5240048,40.365703 7.14000526,37.1097455 7.14000526,33.091798 L7.14000526,31.2758217 C7.14000526,30.2698348 7.98400513,29.4558454 9.02800498,29.4558454 Z M32.6580016,29.4558454 L28.8780022,29.4558454 L28.8780022,34.9117742 L32.6580016,34.9117742 L32.6580016,29.4558454 Z M40.2180005,29.4558454 L36.4380011,29.4558454 L36.4380011,34.9117742 L40.2180005,34.9117742 L40.2180005,29.4558454 Z M15.0080042,4.00008731 C15.3940041,4.00008731 15.7420041,4.22417476 15.888004,4.57217022 L15.880004,4.57217022 L23.4420029,22.7519329 C23.5600029,23.0319293 23.5220029,23.3519251 23.348003,23.5999219 C23.1672358,23.8527757 22.8748233,24.0019638 22.564003,23.9999602 L20.5240033,23.9999602 C20.1435462,24.0027554 19.7984103,23.7773955 19.6480035,23.4279241 L17.6180038,18.5459878 L9.88600485,18.5459878 L7.85800514,23.4279241 C7.70731595,23.7780704 7.36118705,24.0035638 6.9800053,23.9999602 L4.94600559,23.9999602 C4.63518529,24.0019638 4.34277283,23.8527757 4.16200567,23.5999219 C3.98657639,23.3523656 3.95105252,23.0318991 4.0680057,22.7519329 L11.6280046,4.57217022 C11.7792549,4.22066851 12.1273748,3.99490657 12.5100045,4.00008731 L15.0080042,4.00008731 L15.0080042,4.00008731 Z M33.6000015,7.63613021 C35.6060012,7.63613021 37.5300009,8.4021202 38.9480007,9.76610241 C40.3561,11.1074356 41.1557618,12.965343 41.1620004,14.9100353 L41.1620004,16.7260116 C41.1400004,17.7139987 40.3000005,18.5039884 39.2720007,18.5039884 C38.2440008,18.5039884 37.4060009,17.7139987 37.3820009,16.7260116 L37.3820009,14.9100353 C37.3820009,13.9440479 36.984001,13.02006 36.2740011,12.3380689 C35.5535806,11.6510637 34.5954839,11.2691198 33.6000015,11.2720828 L29.820002,11.2720828 C28.7940022,11.2500831 27.9720023,10.4420936 27.9720023,9.45410648 C27.9720023,8.46611939 28.7920021,7.65812991 29.820002,7.63613021 L33.6000015,7.63613021 L33.6000015,7.63613021 Z M13.7520043,9.24410922 L11.4000047,14.9080353 L16.110004,14.9080353 L13.7540043,9.24410922 L13.7520043,9.24410922 Z" id="形状" fill="#000000" fill-rule="nonzero"></path>
    </g>
</svg>