<?xml version="1.0" encoding="UTF-8"?>
<svg width="48px" height="48px" viewBox="0 0 48 48" version="1.1" xmlns="http://www.w3.org/2000/svg" xmlns:xlink="http://www.w3.org/1999/xlink">
    <title>help</title>
    <g id="help" stroke="none" stroke-width="1" fill="none" fill-rule="evenodd">
        <circle id="椭圆形" stroke="#000000" stroke-width="2" cx="24" cy="24" r="19"></circle>
        <path d="M21.58,32.448 L21.58,36 L25.132,36 L25.132,32.448 L21.58,32.448 Z M16.364,20.288 L19.084,20.288 C19.084,19.5413333 19.1693333,18.848 19.34,18.208 C19.5106667,17.568 19.7826667,17.0133333 20.156,16.544 C20.5293333,16.0746667 20.9933333,15.7013333 21.548,15.424 C22.1026667,15.1466667 22.764,15.008 23.532,15.008 C24.684,15.008 25.596,15.3386667 26.268,16 C26.94,16.6613333 27.3186667,17.5786667 27.404,18.752 C27.4466667,19.5413333 27.3506667,20.2133333 27.116,20.768 C26.8813333,21.3226667 26.5666667,21.8293333 26.172,22.288 C25.7773333,22.7466667 25.3506667,23.184 24.892,23.6 C24.4333333,24.016 23.996,24.4693333 23.58,24.96 C23.164,25.4506667 22.812,26.0106667 22.524,26.64 C22.236,27.2693333 22.0706667,28.032 22.028,28.928 L22.028,30.432 L24.748,30.432 L24.748,29.184 C24.748,28.6293333 24.828,28.1333333 24.988,27.696 C25.148,27.2586667 25.3613333,26.8533333 25.628,26.48 C25.8946667,26.1066667 26.1933333,25.7546667 26.524,25.424 C26.8546667,25.0933333 27.1906667,24.768 27.532,24.448 C27.8733333,24.1066667 28.2093333,23.7546667 28.54,23.392 C28.8706667,23.0293333 29.164,22.6346667 29.42,22.208 C29.676,21.7813333 29.884,21.3066667 30.044,20.784 C30.204,20.2613333 30.284,19.6693333 30.284,19.008 C30.284,17.984 30.1186667,17.0773333 29.788,16.288 C29.4573333,15.4986667 28.9933333,14.832 28.396,14.288 C27.7986667,13.744 27.0893333,13.328 26.268,13.04 C25.4466667,12.752 24.5346667,12.608 23.532,12.608 C22.4226667,12.608 21.42,12.8 20.524,13.184 C19.628,13.568 18.8706667,14.1066667 18.252,14.8 C17.6333333,15.4933333 17.1586667,16.3093333 16.828,17.248 C16.4973333,18.1866667 16.3426667,19.2 16.364,20.288 Z" id="形状" fill="#000000" fill-rule="nonzero"></path>
    </g>
</svg>