<?xml version="1.0" encoding="UTF-8"?>
<svg width="48px" height="48px" viewBox="0 0 48 48" version="1.1" xmlns="http://www.w3.org/2000/svg" xmlns:xlink="http://www.w3.org/1999/xlink">
    <title>role</title>
    <g id="role" stroke="none" stroke-width="1" fill="none" fill-rule="evenodd">
        <path d="M14.5423995,33.4761821 C12.0448488,31.8488871 10.5,29.1955578 10.5,25.0919572 C10.5,20.0300288 12.850649,16.7709692 16.440517,15.0168055 C17.9447657,17.8135583 20.8983727,19.7142857 24.2959184,19.7142857 C27.6399951,19.7142857 30.5539962,17.872913 32.0793047,15.1487845 L32.1513197,15.0168055 C35.7411877,16.7709692 38.0918367,20.0300288 38.0918367,25.0919572 C38.0918367,29.4110045 36.3805148,32.1234989 33.6482665,33.7240669" id="路径" stroke="#000000" stroke-width="2"></path>
        <path d="M24.2959184,4 C26.5646011,4 28.6230888,4.71006641 30.0756829,6.06582085 C31.4097037,7.31090699 32.2102041,9.09730867 32.2102041,11.32 C32.2102041,13.6773164 31.3188054,15.813957 29.869733,17.3596342 C28.4432695,18.8811953 26.4744039,19.8285714 24.2959184,19.8285714 C22.1174329,19.8285714 20.1485673,18.8811953 18.7221037,17.3596342 C17.2730313,15.813957 16.3816327,13.6773164 16.3816327,11.32 C16.3816327,9.09730867 17.182133,7.31090699 18.5161539,6.06582085 C19.9687479,4.71006641 22.0272356,4 24.2959184,4 Z" id="椭圆形" stroke="#000000" stroke-width="2"></path>
        <path d="M31.4036485,25.859492 L34.0542358,36.4618412 C34.6512644,38.8499557 33.1993025,41.2698922 30.811188,41.8669209 C30.4576448,41.9553067 30.0945962,42 29.7301721,42 L18.5235898,42 C16.0619778,42 14.066447,40.0044692 14.066447,37.5428571 C14.066447,37.2672858 14.0920034,36.9923082 14.1427881,36.7214568 L16.1550675,25.9892998" id="路径" stroke="#000000" stroke-width="2" stroke-linecap="round" stroke-linejoin="round"></path>
    </g>
</svg>