<?xml version="1.0" encoding="UTF-8"?>
<svg width="48px" height="48px" viewBox="0 0 48 48" version="1.1" xmlns="http://www.w3.org/2000/svg" xmlns:xlink="http://www.w3.org/1999/xlink">
    <title>system-settings</title>
    <g id="system-settings" stroke="none" stroke-width="1" fill="none" fill-rule="evenodd">
        <path d="M24,6 C25.2171014,6 26.4060306,6.12060262 27.5554163,6.35071246 L28.014,6.449 L28.024069,6.62519529 C28.167594,8.48193006 28.944976,10.1610015 30.1401234,11.4463178 L30.3431458,11.6568542 C31.790861,13.1045695 33.790861,14 36,14 C36.9313105,14 37.8253634,13.8406743 38.6565737,13.5484138 C39.59008,14.8547076 40.3532709,16.2911231 40.9135132,17.8253371 C40.2292095,18.3895568 39.6404127,19.0653135 39.1750019,19.8248259 C38.430143,21.0403747 38,22.4698929 38,24 C38,25.5299991 38.4300871,26.9594231 39.1747385,28.1748656 C39.6401464,28.9345184 40.2289455,29.6103607 40.9130968,30.1746486 C40.353123,31.7089897 39.5898925,33.1455179 38.6561614,34.4518629 C37.8250353,34.1592613 36.9311387,34 36,34 C33.790861,34 31.790861,34.8954305 30.3431458,36.3431458 C29.0333081,37.6529834 28.1755676,39.414918 28.024069,41.3748047 L28.014,41.549 L27.5540762,41.6492051 C26.5694543,41.8465761 25.5555388,41.9633237 24.5197077,41.9926521 L24,42 C22.7828986,42 21.5939694,41.8793974 20.4445837,41.6492875 L19.985,41.55 L19.975931,41.3748047 C19.832406,39.5180699 19.055024,37.8389985 17.8598766,36.5536822 L17.6568542,36.3431458 C16.209139,34.8954305 14.209139,34 12,34 C11.0687867,34 10.1748232,34.1592925 9.34358769,34.4518148 C8.40992505,33.1453529 7.64665268,31.7087885 7.0864943,30.1746533 C7.77079695,29.6104324 8.35959132,28.934677 8.82499993,28.1751682 C9.56985898,26.9596191 10,25.5301038 10,24 C10,22.4700067 9.56991617,21.0405877 8.82526996,19.8251482 C8.35986526,19.0654971 7.77107005,18.3896559 7.08702968,17.8250934 C7.69257151,16.1659543 8.53571618,14.621167 9.57496663,13.2315949 C10.6132558,13.7243153 11.7744118,14 13,14 C15.209139,14 17.209139,13.1045695 18.6568542,11.6568542 C20.1045695,10.209139 21,8.209139 21,6 L20.994,6.251 L21.3792902,6.18926322 C22.0636531,6.08945074 22.7605851,6.02820977 23.467747,6.00770588 Z" id="形状结合" stroke="#000000" stroke-width="4"></path>
        <circle id="椭圆形" stroke="#000000" stroke-width="4" cx="24" cy="24" r="6"></circle>
    </g>
</svg>