<?xml version="1.0" encoding="UTF-8"?>
<svg width="48px" height="48px" viewBox="0 0 48 48" version="1.1" xmlns="http://www.w3.org/2000/svg" xmlns:xlink="http://www.w3.org/1999/xlink">
    <title>theme-light</title>
    <g id="theme-light" stroke="none" stroke-width="1" fill="none" fill-rule="evenodd">
        <circle id="椭圆形" stroke="#000000" stroke-width="4" cx="24" cy="23" r="12"></circle>
        <polyline id="直线-2" stroke="#000000" stroke-width="4" stroke-linecap="square" points="24 5 24 5.5 24 6"></polyline>
        <polyline id="直线-2" stroke="#000000" stroke-width="4" stroke-linecap="square" transform="translate(37.2678, 10.2322) rotate(45) translate(-37.2678, -10.2322)" points="37.267767 9.73223305 37.267767 10.232233 37.267767 10.732233"></polyline>
        <polyline id="直线-2" stroke="#000000" stroke-width="4" stroke-linecap="square" transform="translate(10.7322, 10.2322) rotate(-45) translate(-10.7322, -10.2322)" points="10.732233 9.73223305 10.732233 10.232233 10.732233 10.732233"></polyline>
        <polyline id="直线-2" stroke="#000000" stroke-width="4" stroke-linecap="square" transform="translate(37.2678, 35.7678) scale(1, -1) rotate(45) translate(-37.2678, -35.7678)" points="37.267767 35.267767 37.267767 35.767767 37.267767 36.267767"></polyline>
        <polyline id="直线-2" stroke="#000000" stroke-width="4" stroke-linecap="square" transform="translate(10.7322, 35.7678) scale(1, -1) rotate(-45) translate(-10.7322, -35.7678)" points="10.732233 35.267767 10.732233 35.767767 10.732233 36.267767"></polyline>
        <line x1="24" y1="41" x2="24" y2="42" id="直线-2" stroke="#000000" stroke-width="4" stroke-linecap="square"></line>
        <line x1="42" y1="23" x2="43" y2="23" id="直线-2" stroke="#000000" stroke-width="4" stroke-linecap="square"></line>
        <line x1="5" y1="23" x2="6" y2="23" id="直线-2" stroke="#000000" stroke-width="4" stroke-linecap="square"></line>
    </g>
</svg>