<?xml version="1.0" encoding="UTF-8"?>
<svg width="48px" height="48px" viewBox="0 0 48 48" version="1.1" xmlns="http://www.w3.org/2000/svg" xmlns:xlink="http://www.w3.org/1999/xlink">
    <title>theme-dark</title>
    <g id="theme-dark" stroke="none" stroke-width="1" fill="none" fill-rule="evenodd">
        <path d="M19.2141047,6.95011282 C18.4299283,9.14170419 18,11.5176006 18,14 C18,19.5092076 20.1168436,24.4923652 23.5251584,28.1011691 C26.9736711,31.7525355 31.7408397,34 37,34 C38.0725655,34 39.1244893,33.9064123 40.1484693,33.7268069 C38.9123815,35.6477135 37.3207918,37.3182291 35.4669991,38.6457321 C32.5178421,40.7576269 28.9039368,42 25,42 C20.0294373,42 15.5294373,39.9852814 12.2720779,36.7279221 C9.01471863,33.4705627 7,28.9705627 7,24 C7,19.391196 8.73197269,15.1868378 11.580925,12.0026935 C13.6259629,9.71704767 16.2462208,7.95644708 19.2141047,6.95011282 Z" id="形状结合" stroke="#000000" stroke-width="4"></path>
        <path d="M38.7087977,9.26176509 L36.4064767,14.3137085 L38.7087977,19.3656519 L33.6568542,17.063331 L28.6049108,19.3656519 L30.9072318,14.3137085 L28.6049108,9.26176509 L33.6568542,11.564086 L38.7087977,9.26176509 Z" id="星形" stroke="#000000" stroke-width="2" transform="translate(33.6569, 14.3137) rotate(45) translate(-33.6569, -14.3137)"></path>
    </g>
</svg>