<?xml version="1.0" encoding="UTF-8"?>
<svg width="17px" height="12px" viewBox="0 0 17 12" version="1.1" xmlns="http://www.w3.org/2000/svg" xmlns:xlink="http://www.w3.org/1999/xlink">
    <title>wifi</title>
    <g id="wifi" stroke="none" stroke-width="1" fill="none" fill-rule="evenodd">
        <path d="M8.50047252,2.40060438 C10.9670291,2.40070672 13.3392672,3.29823461 15.1268808,4.9076825 C15.2614928,5.03193791 15.4766555,5.03037052 15.6092331,4.90416872 L16.8960008,3.67434764 C16.9631309,3.61033844 17.0005585,3.52363428 17.0000076,3.43342129 C16.9994444,3.34320829 16.9609485,3.2569246 16.8930325,3.19366329 C12.2011193,-1.06455443 4.79908365,-1.06455443 0.107170497,3.19366329 C0.0392049003,3.25687765 0.000642048794,3.34313514 7.56986501e-06,3.43334826 C-0.000611390419,3.52356138 0.036749696,3.6102919 0.103831134,3.67434764 L1.39096984,4.90416872 C1.52346287,5.03056096 1.73879166,5.03212956 1.8733222,4.9076825 C3.66116347,3.29812897 6.03367407,2.40059849 8.50047252,2.40060438 L8.50047252,2.40060438 Z M8.49870201,6.50849242 C9.84480381,6.50841031 11.1428686,7.00652239 12.1406719,7.90604149 C12.2756296,8.03370376 12.4882231,8.03093605 12.6197815,7.89980407 L13.8964242,6.61562929 C13.9636553,6.54827067 14.0009588,6.45689285 14.0000076,6.36193939 C13.9990194,6.26698593 13.9598574,6.17638207 13.8912646,6.11039824 C10.852753,3.29653392 6.14723085,3.29653392 3.10871927,6.11039824 C3.04008377,6.17638127 3.00092419,6.26703053 3.00000757,6.36201467 C2.99912272,6.45699881 3.03655623,6.54836795 3.10392818,6.61562929 L4.38020238,7.89980407 C4.51176072,8.03093605 4.72435427,8.03370376 4.85931196,7.90604149 C5.85645572,7.00711675 7.15348996,6.50904731 8.49870201,6.50849242 L8.49870201,6.50849242 Z M10.8983495,9.50090112 C10.9650911,9.42905914 11.0018462,9.33019486 10.9999367,9.22765021 C10.9980273,9.12510556 10.9576226,9.02796965 10.8882622,8.95917634 C9.50965147,7.68027455 7.4905513,7.68027455 6.11194054,8.95917634 C6.04253207,9.02791434 6.00206123,9.12501968 6.00008357,9.22756485 C5.99810592,9.33011003 6.03479675,9.42900551 6.10149301,9.50090112 L8.26052876,11.8902591 C8.32380851,11.9604806 8.41008233,12 8.50010139,12 C8.59012045,12 8.67639427,11.9604806 8.73967402,11.8902591 L10.8983495,9.50090112 Z" id="Wifi" fill="#000000" fill-rule="nonzero"></path>
    </g>
</svg>